<svg width="46" height="18" fill="none" xmlns="http://www.w3.org/2000/svg"><path d="M8.468 3.502c-1.087 0-1.964.664-2.53.664-.594 0-1.389-.627-2.33-.627C1.818 3.54 0 5.041 0 7.853c0 1.76.676 3.612 1.507 4.82.704 1.004 1.334 1.834 2.23 1.834.885 0 1.278-.59 2.383-.59 1.115 0 1.37.572 2.348.572.978 0 1.626-.895 2.238-1.78.676-1.022.969-2.018.978-2.064-.055-.018-1.919-.783-1.919-2.94 0-1.862 1.462-2.691 1.544-2.756-.959-1.41-2.43-1.447-2.84-1.447zm-.502-1.189c.438-.543.749-1.28.749-2.027 0-.102-.01-.203-.028-.286-.712.028-1.59.48-2.11 1.097-.402.47-.785 1.216-.785 1.963 0 .11.018.23.027.267.046.01.119.019.192.019.648 0 1.47-.443 1.955-1.033zm7.854-1.272v13.3h2.357v-4.36h2.86c2.667 0 4.53-1.806 4.53-4.442 0-2.682-1.799-4.498-4.43-4.498H15.82zm2.357 1.991h2.339c1.7 0 2.658.876 2.658 2.507 0 1.585-.986 2.47-2.667 2.47h-2.33V3.032zm12.359 9.678c-1.005 0-1.727-.507-1.727-1.355 0-.82.594-1.281 1.864-1.364l2.256-.148v.802c0 1.17-1.023 2.065-2.393 2.065zm-.667 1.797c1.306 0 2.402-.572 2.96-1.548h.155v1.382h2.183V7.456c0-2.138-1.443-3.4-4.01-3.4-2.375 0-4.029 1.133-4.211 2.912h2.137c.21-.682.923-1.051 1.964-1.051 1.224 0 1.882.553 1.882 1.54v.847l-2.576.157c-2.43.147-3.791 1.198-3.791 3.023 0 1.843 1.38 3.023 3.307 3.023zM38.235 18c2.238 0 3.307-.83 4.157-3.336L46 4.258h-2.393l-2.33 7.871h-.155l-2.339-7.87H36.3l3.571 10.128-.118.442c-.293.931-.832 1.3-1.79 1.3-.156 0-.494-.01-.622-.037v1.871c.146.028.758.037.895.037z" fill="#fff"/></svg>