<svg width="47" height="20" fill="none" xmlns="http://www.w3.org/2000/svg"><path fill-rule="evenodd" clip-rule="evenodd" d="M22.229 15.197v-5.38h2.829c1.166 0 2.146-.377 2.94-1.131.82-.754 1.23-1.694 1.23-2.82 0-1.1-.41-2.034-1.23-2.8-.806-.767-1.786-1.15-2.94-1.15h-4.542v13.281h1.713zm0-7.012V3.547h2.866c.683 0 1.248.235 1.695.704.458.458.688.997.688 1.615 0 .63-.23 1.176-.689 1.632-.446.458-1.01.687-1.694.687H22.23zM36.17 6.822c-.732-.674-1.731-1.011-2.997-1.011-1.626 0-2.854.593-3.686 1.78l1.508.947c.558-.804 1.315-1.206 2.27-1.206a2.43 2.43 0 011.657.621c.471.415.707.918.707 1.512v.39c-.657-.371-1.495-.557-2.512-.557-1.191 0-2.143.28-2.857.836-.714.556-1.07 1.303-1.07 2.244 0 .89.338 1.632 1.015 2.226.675.594 1.517.89 2.522.89 1.178 0 2.122-.52 2.829-1.558h.074v1.261h1.638V9.595c0-1.174-.366-2.099-1.097-2.773zm-4.644 6.706c-.379-.297-.568-.668-.568-1.113 0-.495.233-.908.698-1.241.464-.334 1.044-.502 1.74-.502.955 0 1.7.21 2.233.63 0 .718-.282 1.342-.846 1.874-.565.53-1.207.797-1.927.797a2.09 2.09 0 01-1.33-.445z" fill="#5F6368"/><path d="M46.667 6.108l-5.714 13.096h-1.768l2.122-4.582-3.76-8.514h1.861l2.718 6.53h.037l2.643-6.53h1.861z" fill="#5F6368"/><path d="M15.31 8.658a9.07 9.07 0 00-.132-1.552H7.956v2.94h4.136a3.533 3.533 0 01-1.53 2.319v1.91h2.47c1.445-1.33 2.277-3.294 2.277-5.617z" fill="#4285F4"/><path d="M7.956 16.116c2.066 0 3.806-.676 5.075-1.842l-2.468-1.909c-.687.461-1.572.73-2.607.73-1.998 0-3.693-1.342-4.3-3.15H1.115v1.966a7.66 7.66 0 006.842 4.205z" fill="#34A853"/><path d="M3.656 9.945a4.573 4.573 0 010-2.921V5.057H1.113a7.57 7.57 0 00-.815 3.427 7.57 7.57 0 00.815 3.427l2.543-1.966z" fill="#FABB05"/><path d="M7.956 3.873c1.128 0 2.14.387 2.937 1.145v.001l2.186-2.178C11.752 1.609 10.021.85 7.956.85a7.66 7.66 0 00-6.842 4.206l2.543 1.966c.606-1.808 2.301-3.15 4.299-3.15z" fill="#E94235"/></svg>