<svg width="30" height="30" fill="none" xmlns="http://www.w3.org/2000/svg"><circle opacity=".2" cx="15" cy="15" r="13" stroke="#fff" stroke-width="4"/><mask id="a" fill="#fff"><path d="M15 28.034c0 1.086.884 1.98 1.96 1.837a15 15 0 005.931-27.627c-.923-.572-2.096-.12-2.542.87-.445.99.01 2.141.905 2.755a11.067 11.067 0 01-4.298 20.024c-1.069.192-1.956 1.055-1.956 2.14z"/></mask><path d="M15 28.034c0 1.086.884 1.98 1.96 1.837a15 15 0 005.931-27.627c-.923-.572-2.096-.12-2.542.87-.445.99.01 2.141.905 2.755a11.067 11.067 0 01-4.298 20.024c-1.069.192-1.956 1.055-1.956 2.14z" stroke="#fff" stroke-width="4" stroke-linecap="round" mask="url(#a)"/></svg>