<svg width="121" height="17" fill="none" xmlns="http://www.w3.org/2000/svg"><path d="M103.419.312v.99A5.998 5.998 0 0099.689 0c-3.383 0-6.147 2.864-6.147 6.378 0 3.515 2.737 6.379 6.146 6.379a5.998 5.998 0 003.731-1.302v1.093h2.818V.312h-2.818zm-3.409 10.05c-2.04 0-3.704-1.77-3.704-3.984 0-2.213 1.664-3.957 3.704-3.957s3.704 1.77 3.704 3.983-1.664 3.957-3.704 3.957zM85.811 0c-1.369 0-2.71.469-3.758 1.354V.312h-2.845V17h2.819v-5.571c1.046.859 2.388 1.328 3.757 1.354 3.382 0 6.147-2.864 6.147-6.379 0-3.514-2.71-6.404-6.12-6.404zm-.322 10.361c-2.04 0-3.704-1.77-3.704-3.983s1.664-3.983 3.704-3.983 3.704 1.77 3.704 3.983-1.664 3.983-3.704 3.983zM118.235.312l-3.623 8.331-3.865-8.33h-2.792l5.315 11.454L110.988 17h2.765L121 .312h-2.765zM61.278 2.005l.135 8.07h-.054l-2.443-8.07h-3.945v10.179h2.603l-.134-8.357h.054l2.63 8.357h3.785V2.004h-2.63zm-49.924 0l-1.96 10.283h2.872l1.45-9.346h.054l1.422 9.346h2.845l-1.96-10.283h-4.723zm16.024 0l-1.315 7.862h-.054l-1.288-7.862h-4.349l-.241 10.283h2.657l.054-9.242h.053l1.799 9.242h2.684l1.771-9.242h.054l.054 9.242h2.657l-.241-10.283h-4.295zM4.938 9.372c.081.26.081.52.028.781-.08.339-.322.677-1.047.677-.671 0-1.074-.364-1.074-.937V8.877H0v.781c0 2.292 1.852 2.994 3.865 2.994 1.933 0 3.49-.624 3.758-2.343a4.485 4.485 0 000-1.692c-.456-2.16-4.483-2.785-4.778-4.009a1.866 1.866 0 010-.547c.08-.338.295-.703.966-.703a.9.9 0 01.994.781v.781h2.657v-.729c0-2.238-2.067-2.603-3.57-2.603-1.879 0-3.436.599-3.704 2.291a3.108 3.108 0 000 1.406c.43 2.16 4.187 2.76 4.75 4.087zm34.465 0c.08.234.08.495.027.755-.08.338-.322.677-1.02.677-.644 0-1.047-.364-1.047-.911v-.99h-2.818v.782c0 2.264 1.852 2.941 3.811 2.941 1.906 0 3.462-.624 3.704-2.317a4.348 4.348 0 000-1.666c-.456-2.109-4.456-2.76-4.724-3.957a1.69 1.69 0 010-.52c.08-.34.295-.677.966-.677.483-.053.94.312.967.78v.755h2.603v-.728c0-2.213-2.04-2.578-3.543-2.578-1.879 0-3.382.599-3.677 2.265-.08.443-.08.911.027 1.38.456 2.083 4.187 2.681 4.724 4.01zm8.911 1.354a.96.96 0 001.02-.73c.027-.13.027-.26.027-.39V2.005h2.684v7.367c0 .182-.027.573-.027.677-.188 1.927-1.745 2.551-3.704 2.551-1.96 0-3.516-.624-3.704-2.551 0-.104-.027-.495-.027-.677V2.005h2.684v7.601c0 .13 0 .26.027.39a.936.936 0 001.02.73zm22.117-.104c.779 0 1.047-.469 1.074-.73.027-.13.027-.26.027-.39V8.018h-1.074v-1.51h3.758v2.76c0 .182 0 .338-.027.677-.161 1.874-1.852 2.551-3.73 2.551-1.88 0-3.544-.677-3.732-2.551-.027-.339-.027-.495-.027-.677V4.92c0-.234.027-.442.054-.677.242-1.926 1.852-2.55 3.73-2.55 1.88 0 3.517.598 3.732 2.55.027.235.027.443.027.677v.339h-2.684v-.573c0-.13 0-.26-.027-.39-.054-.235-.242-.755-1.074-.755a.967.967 0 00-1.047.755 2.794 2.794 0 00-.053.494v4.712c0 .13 0 .26.026.39 0 .261.269.73 1.047.73z" fill="#fff"/></svg>