<svg width="52" height="50" fill="none" xmlns="http://www.w3.org/2000/svg"><path fill-rule="evenodd" clip-rule="evenodd" d="M35.437 0c1.03.44 2.03.951 2.989 1.53l-22.94 13.235L4.847 8.633l.205-.263c.53-.68 1.059-1.36 1.588-1.894l8.912 5.066L35.437 0zm7.759 5.15a28.253 28.253 0 00-2.284-1.95l-25.36 14.837L3.322 11a78.35 78.35 0 00-.63 1.203c-.217.418-.442.852-.684 1.303l13.406 7.801L43.196 5.151zm2.074 2.157c.484.771 1.034 1.536 1.59 2.301l-31.17 18.2L.61 19.005c.067-.952.268-1.889.597-2.783l14.345 8.289L45.27 7.307zM.142 22.072l15.409 8.916 32.694-18.946a25.391 25.391 0 012.761 11.699 25.805 25.805 0 01-7.469 18.174 25.4 25.4 0 01-18.031 7.528 25.4 25.4 0 01-18.032-7.528A25.805 25.805 0 01.005 23.74c-.022-.56.024-1.12.138-1.669z" fill="#fff"/></svg>