<svg width="58" height="58" fill="none" xmlns="http://www.w3.org/2000/svg"><path fill-rule="evenodd" clip-rule="evenodd" d="M47.837 30.454c0 7.056-3.61 13.387-9.43 16.52l-1.334.642a3.33 3.33 0 01-1.39.322c-.907 0-1.626-.391-2.058-1.106-.343-.591-.438-1.228-.303-1.957.202-1.01.977-1.518 1.206-1.645 3.43-1.584 5.638-5.143 5.638-9.081V23.857c0-3.94-2.199-7.494-5.593-9.061-.008-.008-1.021-.5-1.251-1.672-.135-.73-.04-1.368.303-1.954.432-.707 1.151-1.107 2.057-1.107.47 0 .953.107 1.391.318 0 0 1.254.606 1.306.626 5.845 3.15 9.458 9.486 9.458 16.538v2.909zM22.518 43.23c.23.127 1.008.635 1.211 1.645.136.73.044 1.366-.305 1.957-.428.715-1.149 1.106-2.058 1.106-.465 0-.944-.118-1.392-.322l-1.333-.642c-5.82-3.133-9.43-9.464-9.43-16.52v-2.91c0-7.052 3.623-13.386 9.456-16.537.056-.02 1.307-.626 1.307-.626.448-.21.927-.318 1.388-.318.907 0 1.634.4 2.062 1.107.35.586.441 1.224.305 1.954-.23 1.172-1.24 1.663-1.25 1.672-3.395 1.567-5.59 5.12-5.59 9.06V34.15c0 3.938 2.198 7.497 5.63 9.081zM28.524 0C12.772 0 0 12.985 0 28.998 0 45.015 12.773 58 28.524 58c15.75 0 28.525-12.985 28.525-29.002C57.05 12.985 44.275 0 28.524 0z" fill="#fff"/></svg>