<svg width="68" height="61" fill="none" xmlns="http://www.w3.org/2000/svg"><path fill-rule="evenodd" clip-rule="evenodd" d="M67.069 28.557l.882-2.823-2.918.092c-.246 0-2.038-.05-3.776-1.311.13.011.26.03.393.03 1.788 0 3.521-1.077 4.214-2.619l1.254-2.783a22.617 22.617 0 01-3.012-.178c-.012-.002-1.147-.15-2.458-1.489-.94-.96-2.104-1.469-3.364-1.469-.552 0-1.045.101-1.47.235a5.53 5.53 0 00.166-.69c.4-2.605-1.275-4.592-1.276-4.591L53.51 8.244l-1.36 3.192c-.005.01-.35.758-.963 1.124-.185-.94-.641-1.994-1.614-3.002-1.837-1.9-4.07-2.184-5.24-2.184-.541 0-.929.059-1.022.075l-2.648.52c.153-.591.479-1.623 1.073-2.55l1.461-2.277-3.677.418-1.172-2.488-2.268 1.17L33.981.168 31.89 2.241l-2.274-1.169-1.17 2.488-3.675-.42 1.463 2.279c.596.927.92 1.956 1.071 2.546l-2.527-.499-.086-.014a6.74 6.74 0 00-1.056-.078c-1.169 0-3.403.284-5.235 2.182-.974 1.009-1.432 2.064-1.617 3.004-.61-.362-.952-1.099-.952-1.099l-1.363-3.21-2.229 2.733c-.273.353-1.615 2.22-1.25 4.57.037.235.099.463.165.688a4.799 4.799 0 00-1.468-.235c-1.261 0-2.425.51-3.367 1.47-1.308 1.334-2.435 1.485-2.425 1.485 0 0-1.193.214-3.039.18l1.248 2.784c.695 1.542 2.428 2.619 4.214 2.619.135 0 .263-.019.395-.03-1.734 1.26-3.526 1.311-3.742 1.313L0 25.734l.9 2.822c.454 1.455 1.967 3.863 4.864 4.123C5.45 34 4.75 35.482 3.215 36.119l-2.213.912 1.207 2.102c.68 1.133 2.281 2.46 4.558 2.46a7.019 7.019 0 001.426-.149c.117.517.263 1.037.436 1.55.678 2.02.094 3.427.088 3.442l-1.094 2.29 2.439.642c.031.01.768.212 1.69.212.419 0 .82-.043 1.193-.133a5.37 5.37 0 00.819-.26c.316.566.7 1.084 1.146 1.546 1.563 1.605 3.779 2.417 6.585 2.417h.008l2.003-.027-4.137 1.722 3.141 1.519c1.142.556 2.495 1.214 3.873 1.717l-.392 1.073 1.083.494c.096.044 2.18.975 5.64 1.173 0 0 .836.04 1.296.04.46 0 1.286-.043 1.286-.043 3.439-.203 5.505-1.126 5.602-1.17l1.085-.495-.396-1.075c1.417-.518 2.821-1.202 3.915-1.738l3.084-1.496-4.125-1.72 2.011.026c2.81 0 5.026-.813 6.587-2.42a7.378 7.378 0 001.145-1.543 5.192 5.192 0 002.013.393c.907 0 1.652-.2 1.671-.206l2.45-.648-1.067-2.247c-.025-.058-.61-1.465.069-3.485.172-.515.317-1.034.436-1.55.46.097.94.148 1.435.15a5.32 5.32 0 004.561-2.485l1.195-2.08-2.213-.909c-1.538-.638-2.235-2.119-2.548-3.438 2.86-.25 4.394-2.661 4.863-4.125z" fill="#FFFFFE"/><path fill-rule="evenodd" clip-rule="evenodd" d="M33.982 8.814c-2.343.002-4.101.77-4.483 1.674l4.483 1.77 4.484-1.77c-.379-.903-2.137-1.672-4.484-1.674zm.047 46.836h-.09c-1.42.01-3.377-.281-4.318-.556l-1.134 3.067c.747.266 3.28.776 5.499.776 2.215 0 4.748-.51 5.495-.776l-1.133-3.067c-.945.275-2.9.567-4.32.557zm8.579-3.05c-.844.476-2.728 1.194-3.823 1.526l.92 2.534c1.694-.463 3.094-1.003 4.248-1.583l-1.909-.635.564-1.843zm-17.248 0l.565 1.842-1.91.635c1.153.58 2.558 1.12 4.247 1.583l.921-2.534c-1.093-.332-2.98-1.05-3.823-1.527zm8.622-46.718c1.767 0 3.498.422 4.832 1.164.121-.408.292-.903.523-1.423l-.505.06-.528.056-.224-.482-.674-1.423-1.228.639-.478.244-.383-.377-1.335-1.32-1.332 1.32-.382.377-.478-.244-1.235-.64-.665 1.424-.228.482-.528-.056-.502-.06c.23.52.4 1.015.522 1.423 1.338-.742 3.069-1.164 4.828-1.164zm26.974 16.451c.23.08.462.115.693.115 1 0 1.966-.647 2.298-1.385 0 0-1.831-.112-3.803-2.112-.627-.648-1.29-.842-1.86-.842-.886 0-1.55.466-1.55.466 2.381 1.267 2.866 3.3 4.222 3.758zm-54.639.114c.231 0 .465-.034.69-.114 1.358-.458 1.848-2.49 4.226-3.756 0 0-.666-.469-1.546-.469-.573 0-1.236.194-1.866.843-1.969 2-3.8 2.112-3.8 2.112.33.737 1.298 1.384 2.296 1.384z" fill="#FFFFFE"/><path fill-rule="evenodd" clip-rule="evenodd" d="M60.238 36.931c-1.841-.907-3.005-3.318-3.286-4.185-.306 4.779-2.638 8.094-5.365 11.287-1.416 1.656-1.909 3.264-1.909 3.264s.273-1.822 1.496-3.306c2.545-3.056 4.964-6.863 5.142-11.263.124-3.071-.665-5.561-1.897-7.615.689 2.138.59 4.756-1.749 7.2 0 0 4.66-5.585-1.856-11.309-2.606-2.18-5.46-3.525-6.929-4.478 5.307 1.732 7.898-.174 7.898-.174-1.694 1.47-3.888 1.443-5.249 1.232.37.18.753.367 1.166.59 4.475 2.43 8.495 6.429 9.181 11.967v-.043c1.04 5.438 3.357 6.833 3.357 6.833zm1.362-6.335c.042.002.077.002.12.002 2.493 0 3.338-2.67 3.338-2.67h-.048c-.458 0-4.166-.11-6.788-3.44-1.725-2.191-3.14-4.118-5.932-4.875l-.275-.05-.06-.278c-.077-.427.217-.827.879-1.259 3.855-2.522 1.237-5.742 1.237-5.742s-1.1 2.573-3.563 2.573c-.06 0-.121-.003-.183-.003-.279-.014-.55-.024-.82-.082l-.455-.089s.703-1.909-.992-3.662c-1.277-1.324-2.829-1.549-3.726-1.549-.452 0-.738.059-.738.059.851 1.112 1.466 2.958.484 4.098-.85.98-2.925 1.027-2.925 2.485 0 .62.578 1.34 1.615 1.988 3.118 1.964 6.213 4.57 7.503 8.062 1.607 4.356-.205 7.248-2.791 8.906 0 0 .812.748 1.987.843.24.022.473.033.692.033 2.483 0 3.768-1.164 3.768-1.164s-.212 1.609-1.504 3.103c-1.193 1.38-2.757 2.193-5.146 2.226 0 0-.075 1.109.983 2.067.676.606 2.238.802 2.238.802s-2.925.593-3.248 4.913c-.176 2.342-.775 3.156-.775 3.156h.053c6.79 0 6.615-5.823 6.615-5.823s.472 1.724 2.366 2.174c.23.06.473.083.706.083.61 0 1.14-.143 1.14-.143s-.993-2.092-.009-5.019c.817-2.427.685-4.226.685-4.226s.913 1.383 3.182 1.395h.023c1.889 0 2.71-1.431 2.71-1.431-4.525-1.88-4.079-7.943-4.079-7.943s.589.438 1.733.48zM16.38 44.034c-2.727-3.194-5.06-6.51-5.368-11.289-.281.869-1.44 3.279-3.281 4.186 0 0 2.313-1.395 3.353-6.833v.042c.688-5.537 4.708-9.537 9.184-11.966.41-.223.796-.41 1.164-.59-1.36.212-3.554.237-5.248-1.232 0 0 2.592 1.906 7.896.174-1.468.954-4.32 2.299-6.926 4.477-6.517 5.725-1.856 11.31-1.856 11.31-2.344-2.444-2.438-5.061-1.748-7.2-1.236 2.054-2.025 4.544-1.897 7.615.178 4.4 2.595 8.206 5.135 11.264 1.23 1.483 1.505 3.306 1.505 3.306s-.5-1.609-1.914-3.264zm1.09-1.054s1.562-.196 2.24-.802c1.056-.96.98-2.067.98-2.067-2.388-.033-3.951-.847-5.151-2.225-1.284-1.495-1.497-3.104-1.497-3.104s1.283 1.164 3.764 1.164c.223 0 .455-.01.694-.033 1.178-.095 1.991-.842 1.991-.842-2.59-1.66-4.402-4.55-2.795-8.907 1.288-3.49 4.383-6.099 7.502-8.062 1.037-.648 1.614-1.369 1.614-1.987 0-1.46-2.073-1.507-2.921-2.486-.983-1.14-.368-2.986.482-4.099 0 0-.283-.058-.738-.058-.896 0-2.448.225-3.725 1.549-1.697 1.752-.993 3.662-.993 3.662l-.454.09c-.271.057-.544.067-.822.082l-.18.002c-2.468 0-3.563-2.573-3.563-2.573s-2.617 3.219 1.236 5.743c.664.43.955.83.878 1.258l-.06.279-.28.048c-2.788.76-4.204 2.686-5.93 4.876-2.62 3.33-6.324 3.439-6.785 3.439h-.05s.845 2.671 3.34 2.671c.04 0 .078 0 .119-.002 1.148-.042 1.735-.48 1.735-.48s.444 6.063-4.08 7.943c0 0 .824 1.432 2.711 1.432h.023c2.27-.013 3.183-1.396 3.183-1.396s-.132 1.799.681 4.227c.984 2.927-.003 5.018-.003 5.018s.527.143 1.136.143c.237 0 .479-.023.705-.083 1.893-.45 2.366-2.174 2.366-2.174s-.173 5.823 6.616 5.823h.049s-.593-.814-.768-3.155c-.323-4.321-3.25-4.914-3.25-4.914zm14.98-21.456h3.201v1.1c-.377-.462-1.11-.369-1.11-.369v1.584s.028.779.301 1.116h-1.584c.277-.337.302-1.116.302-1.116v-1.584s-.73-.093-1.11.368v-1.099zm-3.487.165c.111.12.22.25.326.379.026.032.048.059.074.094.097.129.195.266.29.408.021.026.042.06.064.092.114.172.221.35.328.533.98 1.69 2.546 2.7 3.936 2.703 1.393-.002 2.958-1.012 3.94-2.703.109-.188.219-.37.332-.54.017-.025.035-.05.05-.075a6.74 6.74 0 01.305-.424c.022-.03.044-.056.064-.082.109-.136.222-.267.337-.39.019-.019.036-.037.054-.053.499-.51 1.094-.9 1.872-1.115l-.346-.201h-.02l-1.378-.801-1.416-.811-3.783 2.059-.01-.009-.007.009-3.784-2.06-1.415.812-1.38.8h-.017l-.35.202c.78.216 1.372.6 1.873 1.112.022.019.037.042.06.06z" fill="#FFFFFE"/><path fill-rule="evenodd" clip-rule="evenodd" d="M32.777 14.546v1.033l-.199-.091c-.009-.008-.3-.074-.808-.475-.838-.651-.855-1.25-.855-1.25l1.862.783zm.878 4.849v-6.43l-4.093-1.388 1.08 6.23 3.013 1.588zm1.535-4.849l1.862-.784s-.016.6-.857 1.25c-.505.402-.798.468-.807.476l-.198.09v-1.032zm2.134 3.261l1.076-6.23-4.09 1.388v6.43l3.014-1.588zm-9.456 16.491c.397.144.881.174 1.13.174.008-.03.022-.068.034-.114.021-.073.042-.146.058-.225a6.43 6.43 0 00.099-1.02c-.167-.105-.404-.29-.537-.568-.152-.319-.37-.469-.685-.469-.412 0-.853.248-1.043.365-.15.89.504 1.695.944 1.857zm9.052-3.411c-.76.827-2.249 2.266-2.32 2.338l-.09.091-4.701-.075a4.858 4.858 0 01-.153 1.153l-.037.15 5.59 1.004c.583-.407 2.184-1.576 2.806-2.034-.452-.66-.495-1.444-.393-1.995a2.796 2.796 0 01-.703-.631z" fill="#FFFFFE"/><path fill-rule="evenodd" clip-rule="evenodd" d="M37.556 25.234c-1.083 1.074-2.122 1.472-3.05 1.564a5.08 5.08 0 01-.511.03h-.024c-.173 0-.344-.013-.512-.03a3.78 3.78 0 01-.502-.078c-.06.242-.138.745.082 1.226.197.433.596.756 1.178.971l.196.077.003.21c0 .063.047 1.432 1.537 1.81.243-.25.464-.476.627-.666-.304-.717-.144-1.45.298-1.807-.02.075-.214 1.87 1.225 2.538l.237.112-.07.253c-.024.075-.504 1.813 1.238 2.459l.31.117-.137.3c-.03.066-.714 1.642.896 2.536h3.489v-2.77c-1.241-.15-1.767-1.148-1.902-1.854-.577-.1-1.023-.349-1.33-.754-.731-.965-.102-1.847-.094-1.894-.001.007 0 .947.58 1.527.288.279.628.496 1.142.545l.255.023.022.26c.004.054.144 1.327 1.327 1.526l-.003-5.659c0-.876.255-1.758.563-2.572h-7.07zm-9.391 2.593l-.095 3.603.41.062 1.001-3.457-.508-1.064-.808.856zm2.169 13.341a.203.203 0 01-.195-.22c.01-.112.105-.2.22-.19.117.005.2.108.196.217a.208.208 0 01-.22.193zm8.874 3.19a.41.41 0 01.099.012c.623.177.781 2.423 1.874 2.625.107.022.206.029.292.029.317 0 .505-.135.708-.376 0 0-.55-.863-.96-1.446-.548-.764-.972-1.686-1.99-1.686-.023 0-.053 0-.078.003-.335.017-.541.18-.541.18a2.108 2.108 0 00-1.144-.346c-.637 0-1.132.292-1.38.292h-.01l-2.272-.224c-.355-.034-.636-.392-.737-.531l-.039-.062c0-.062 0-.125-.004-.18-.076-1.86-1.515-2.653-2.027-2.666 0 0 .06-.354-.078-.488l-.502.607-1.643-.824 1.173 1.37-.994 1.115c-.125.127-.109.298-.056.371l.429.38.543-.33c.027-.02.078-.027.137-.027.15 0 .377.04.58.04.222 0 .414-.048.436-.257-.068.69-.707 1.886-.287 2.827l.31.71-2.008-.29-.94 1.589c-.29.529-.335 1.1-.056 1.412l.35.439s.494-.522.605-.867l-.16-.176c-.134-.148-.128-.28-.045-.44l.59-.977 2.37.56.126-.214c.161-.268.393-.347.646-.347.106 0 .212.012.324.03.44.087 1.165.203 1.89.203.793 0 1.582-.14 2.003-.613.86 1.273 2.599 1.476 2.462 2.123l-.458 2.18a9.1 9.1 0 00.872-.07l.436-2.27c.048-.247.094-.578.094-.578-.168-.172-.574-.53-.804-.97-.306-.59-.14-.898-.426-1.665 0 0 .089-.178.29-.178z" fill="#FFFFFE"/><path fill-rule="evenodd" clip-rule="evenodd" d="M27.097 46.42s.787-.324.856-.552l-.105-.264c-.075-.17-.064-.355.08-.456l.848-.587 1.417.272s-.256-.32-.231-.75l-1.353-.286-1.276.778a1.238 1.238 0 00-.406 1.474l.17.372zm10.026 3.697c.253-.01.534-.014.84-.014 0 0 .73-2.134.771-2.2a17.876 17.876 0 01-1.585-.838c.217.325.743.694.64.98l-.666 2.072z" fill="#FFFFFE"/><path fill-rule="evenodd" clip-rule="evenodd" d="M44.066 37.467H23.902v7.584c0 3.103 2.244 5.044 5.556 5.044 2.768 0 3.498.108 4.527 1.13.71-.709 1.296-.972 2.5-1.07l.029-.119.636-1.964a305.554 305.554 0 00-1.075-1.224c-.412.137-.758.16-1.339.16-.597 0-1.27-.07-2-.208a.987.987 0 00-.212-.024c-.09 0-.096.008-.12.052l-.125.209-.23.381-.437-.1-1.935-.456-.265.438.04.047.235.259-.105.338c-.142.442-.604.959-.745 1.1l-.483.52-.441-.557-.331-.415c-.348-.39-.429-.986-.233-1.611a.038.038 0 01-.02.009l-.545.225-.245-.534-.172-.377a1.845 1.845 0 01.612-2.227l1.558-.88 1.481.292c.036-.142.09-.65.132-.781-.03-.003-.055-.01-.085-.01l-.854.32-.824-.569s-.322-.31-.03-.621l.797-1.208-2.021-2.537 3.106 1.276.207-.256.42-.501.475.452a.91.91 0 01.25.45c.855.332 2.39 1.316 2.525 2.915l-.48.191v.012c.11.13.2.184.23.188l2.216.219c.058-.01.127-.035.206-.058.275-.094.688-.23 1.18-.23.399 0 .784.092 1.157.265.136-.051.304-.089.499-.102l.106-.002c1.187 0 1.779.886 2.251 1.594a9 9 0 00.24.352c.414.585.956 1.44.978 1.478l.244.382-.299.348c-.23.267-.577.58-1.171.58a2.21 2.21 0 01-.402-.041 1.768 1.768 0 01-.352-.108c-.017.117-.042.257-.063.377l-.39 2.029c2.326-.573 3.803-2.328 3.803-4.842l-.005-7.584zm-20.163-.61h15.682c-.784-.81-.772-1.834-.573-2.5a2.604 2.604 0 01-.584-.385 264.14 264.14 0 01-2.972 2.157l-.105.07-6.155-1.112h-.125c-.148 0-.363-.006-.6-.035a.598.598 0 01-1.072.215.597.597 0 01-.108-.453l.023-.132c-.634-.447-1.22-1.447-.96-2.5l.024-.11.09-.065a3.73 3.73 0 01.279-.172l-.448-.069a.309.309 0 01-.253-.351.305.305 0 01.35-.254l1.066.168.097-3.751 1.585-1.677.99 2.083-1.044 3.608.94.15a.307.307 0 01.255.351.301.301 0 01-.301.253c-.017 0-.033 0-.05-.002l-.765-.123c.01.024.025.036.035.06.08.17.262.289.368.342l4.691.075c.2-.195.69-.676 1.199-1.186a2.532 2.532 0 01-1.645-2.095c-.645-.274-1.091-.686-1.338-1.22-.3-.665-.194-1.328-.113-1.652-.626-.228-1.284-.644-1.956-1.311h-7.067c.303.814.56 1.695.56 2.571v9.052z" fill="#FFE52B"/><path fill-rule="evenodd" clip-rule="evenodd" d="M30.36 40.758a.204.204 0 00-.22.191.201.201 0 00.194.218c.113.01.21-.076.221-.19a.209.209 0 00-.196-.219zm9.345 15.902l-.92-2.534c1.095-.332 2.979-1.05 3.823-1.527l-.563 1.843 1.908.635c-1.154.58-2.553 1.12-4.248 1.584zm-5.718 2.277c-2.22 0-4.753-.51-5.5-.776l1.134-3.068c.941.276 2.898.567 4.318.558h.09c1.42.009 3.374-.282 4.32-.558l1.131 3.068c-.746.266-3.279.776-5.493.776zm-9.973-3.86l1.912-.635-.565-1.843c.842.477 2.73 1.195 3.823 1.527l-.922 2.535c-1.69-.465-3.095-1.005-4.247-1.584zm20.025-.563l-1.162-.446.321-1.2.353-1.308s-2.058 1.117-4.958 1.955c-.823.236-1.446.343-1.446.343v.892s-1.551.269-3.118.269h-.09c-1.57 0-3.118-.27-3.118-.27v-.89s-.624-.108-1.446-.344c-2.899-.838-4.956-1.955-4.956-1.955l.348 1.307.327 1.201-1.164.446-1.293.483c1.48.715 3.533 1.755 5.411 2.27l-.442 1.21s2.382 1.085 6.35 1.096v.002h.055v-.002c3.973-.011 6.353-1.095 6.353-1.095l-.445-1.211c1.878-.515 3.935-1.555 5.409-2.27l-1.29-.483zM29.134 5.684l.528.054.228-.481.665-1.422 1.235.639.478.244.382-.378 1.331-1.321 1.336 1.321.382.378.479-.244 1.228-.64.674 1.423.224.481.528-.054.505-.062a11.98 11.98 0 00-.523 1.425C37.48 6.304 35.749 5.88 33.98 5.88c-1.758 0-3.489.423-4.827 1.166a12.138 12.138 0 00-.522-1.425l.502.062zm4.847.94c2.365 0 4.256.783 5.302 1.618 0 0 .31-1.87 1.37-3.518l-1.905.217-.996-2.116-1.914.986-1.857-1.834-1.85 1.834-1.919-.986-.995 2.116-1.903-.217c1.06 1.649 1.37 3.518 1.37 3.518 1.052-.835 2.937-1.619 5.297-1.619zm29.966 31.435s-.822 1.432-2.712 1.432h-.022c-2.268-.013-3.182-1.396-3.182-1.396s.131 1.8-.685 4.227c-.984 2.927.008 5.017.008 5.017s-.529.144-1.138.144c-.234 0-.478-.022-.707-.083-1.894-.45-2.366-2.174-2.366-2.174s.174 5.823-6.615 5.823h-.053s.599-.814.775-3.156c.323-4.32 3.248-4.913 3.248-4.913s-1.561-.196-2.238-.802c-1.058-.96-.983-2.068-.983-2.068 2.389-.032 3.953-.845 5.146-2.225 1.292-1.493 1.503-3.103 1.503-3.103s-1.285 1.164-3.767 1.164a7.28 7.28 0 01-.692-.033c-1.175-.095-1.986-.842-1.986-.842 2.585-1.658 4.398-4.551 2.79-8.906-1.289-3.492-4.385-6.099-7.503-8.063-1.037-.648-1.615-1.369-1.615-1.988 0-1.46 2.075-1.506 2.926-2.485.981-1.14.365-2.986-.485-4.098 0 0 .286-.059.738-.059.897 0 2.45.225 3.726 1.549 1.695 1.752.992 3.663.992 3.663l.454.088c.272.057.541.068.822.083l.182.003c2.463 0 3.563-2.574 3.563-2.574s2.618 3.219-1.236 5.742c-.663.432-.956.832-.88 1.259l.061.279.274.05c2.793.756 4.207 2.683 5.932 4.874 2.623 3.33 6.33 3.438 6.787 3.438h.05s-.846 2.672-3.34 2.672c-.042 0-.077 0-.118-.003-1.145-.04-1.734-.479-1.734-.479s-.446 6.064 4.08 7.943zm-2.228-6.643c3.058 0 4.08-3.11 4.123-3.244l.342-1.095-1.147.035h-.004c-.404 0-3.778-.09-6.17-3.13l-.225-.281c-1.563-1.987-3.045-3.878-5.695-4.74.077-.07.187-.154.337-.251 1.406-.925 2.224-2.05 2.43-3.353.3-1.961-.952-3.526-1.007-3.59l-.85-1.053-.533 1.249c-.036.078-.93 2.077-2.812 2.077h-.14c-.128-.007-.252-.012-.372-.021.066-.892-.097-2.272-1.349-3.568-1.505-1.557-3.35-1.79-4.315-1.79-.516 0-.858.062-.895.066l-1.286.255.793 1.046c.622.805 1.186 2.293.517 3.07-.214.247-.654.447-1.074.648-.867.399-2.05.955-2.05 2.368 0 .915.711 1.871 1.997 2.685 3.807 2.394 6.155 4.892 7.17 7.65 1.57 4.241-.479 6.66-2.466 7.937l-.893.574.78.716c.107.092 1.06.934 2.472 1.055.267.017.522.032.762.032.903 0 1.674-.142 2.3-.333-.171.301-.385.61-.65.918-1.137 1.317-2.535 1.917-4.545 1.949l-.748.012-.057.75c-.007.15-.063 1.54 1.252 2.721.2.184.444.335.7.457-.893.803-1.8 2.202-1.975 4.598-.148 2-.624 2.74-.631 2.748l-.825 1.26 1.492.021c2.467 0 4.354-.68 5.663-2.028.773-.799 1.215-1.7 1.476-2.496a4.006 4.006 0 002.605.956c.695 0 1.279-.148 1.344-.164l.953-.253-.422-.89c-.03-.07-.826-1.855.03-4.401a14.51 14.51 0 00.648-2.856c.6.313 1.403.572 2.442.574 2.359 0 3.4-1.762 3.446-1.836l.464-.81-.861-.354c-2.811-1.166-3.433-4.302-3.557-5.997.253.049.543.094.871.103l.145.004z" fill="#1A1919"/><path fill-rule="evenodd" clip-rule="evenodd" d="M58.283 18.108c.57 0 1.234.194 1.862.843 1.97 2 3.803 2.112 3.803 2.112-.333.738-1.299 1.384-2.299 1.384-.23 0-.463-.034-.693-.114-1.356-.458-1.84-2.49-4.221-3.756 0 0 .663-.469 1.548-.469zM56.346 19.3c1.14.608 1.806 1.421 2.388 2.143.573.705 1.115 1.383 1.966 1.665.301.103.622.153.95.153 1.274 0 2.556-.78 3.042-1.862l.49-1.084-1.184-.07c-.055-.001-1.576-.14-3.269-1.87-.696-.708-1.539-1.082-2.446-1.082-1.108 0-1.93.554-2.02.611l-1.087.766 1.17.63zm.536 10.798v.042c-.686-5.537-4.706-9.536-9.182-11.966a30.072 30.072 0 00-1.166-.59c1.361.21 3.556.237 5.25-1.232 0 0-2.592 1.906-7.899.174 1.468.953 4.323 2.299 6.93 4.478 6.515 5.724 1.855 11.308 1.855 11.308 2.34-2.443 2.438-5.06 1.749-7.198 1.232 2.052 2.02 4.542 1.898 7.614-.18 4.4-2.599 8.206-5.142 11.263-1.224 1.484-1.497 3.307-1.497 3.307s.494-1.609 1.91-3.265c2.726-3.193 5.059-6.508 5.364-11.288.281.868 1.444 3.279 3.286 4.186 0 0-2.316-1.395-3.356-6.833zM21.44 51.049c-6.79 0-6.617-5.823-6.617-5.823s-.473 1.724-2.366 2.174a2.77 2.77 0 01-.705.083c-.61 0-1.136-.143-1.136-.143s.987-2.09.003-5.019c-.813-2.427-.682-4.226-.682-4.226s-.912 1.383-3.182 1.396h-.023c-1.887 0-2.71-1.432-2.71-1.432 4.522-1.88 4.08-7.943 4.08-7.943s-.589.438-1.736.48c-.041.002-.08.002-.119.002-2.495 0-3.34-2.672-3.34-2.672h.05c.46 0 4.165-.107 6.785-3.438 1.726-2.19 3.141-4.117 5.93-4.875l.28-.05.06-.278c.077-.427-.214-.828-.878-1.259-3.853-2.523-1.236-5.742-1.236-5.742s1.095 2.574 3.564 2.574l.18-.002c.277-.016.55-.027.821-.084l.454-.088s-.705-1.91.993-3.663c1.277-1.324 2.828-1.549 3.725-1.549.455 0 .737.059.737.059-.849 1.112-1.464 2.958-.482 4.098.85.98 2.922 1.026 2.922 2.486 0 .618-.578 1.34-1.614 1.987-3.12 1.964-6.214 4.571-7.502 8.063-1.607 4.356.206 7.247 2.795 8.906 0 0-.813.747-1.99.842a7.296 7.296 0 01-.695.033c-2.48 0-3.765-1.164-3.765-1.164s.214 1.61 1.498 3.104c1.2 1.379 2.763 2.192 5.151 2.224 0 0 .076 1.109-.98 2.068-.678.606-2.24.802-2.24.802s2.927.593 3.249 4.913c.175 2.342.769 3.156.769 3.156h-.049zm.721-.466c-.002-.008-.476-.747-.628-2.748-.177-2.397-1.084-3.795-1.978-4.598a2.82 2.82 0 00.7-.457c1.314-1.18 1.258-2.57 1.249-2.722l-.05-.75-.753-.011c-2.005-.032-3.406-.632-4.542-1.949a6.018 6.018 0 01-.65-.919 7.8 7.8 0 002.297.334c.243 0 .496-.015.762-.032 1.412-.12 2.368-.962 2.474-1.055l.781-.717-.891-.573c-1.995-1.276-4.036-3.696-2.469-7.937 1.016-2.758 3.36-5.256 7.173-7.65 1.286-.814 1.991-1.77 1.991-2.684 0-1.414-1.18-1.97-2.046-2.369-.421-.201-.86-.4-1.074-.649-.671-.776-.106-2.264.516-3.07l.798-1.045-1.292-.255c-.038-.004-.376-.067-.894-.067-.966 0-2.807.234-4.31 1.791-1.254 1.297-1.419 2.676-1.355 3.567-.12.01-.243.015-.371.022h-.137c-1.888 0-2.779-1.999-2.814-2.077l-.53-1.249-.86 1.053c-.048.064-1.303 1.628-.998 3.59.203 1.304 1.022 2.428 2.43 3.353.152.097.258.181.334.25-2.653.863-4.133 2.754-5.696 4.74l-.225.282c-2.388 3.04-5.77 3.13-6.174 3.13l-1.152-.035.35 1.095c.042.134 1.06 3.244 4.12 3.244l.148-.004c.324-.009.614-.054.873-.104-.127 1.696-.752 4.83-3.564 5.998l-.858.355.465.809c.045.074 1.087 1.836 3.45 1.836 1.034-.003 1.837-.261 2.438-.573.09.767.279 1.752.648 2.855.855 2.545.06 4.33.03 4.402l-.424.889.955.253c.063.016.65.164 1.344.164a3.977 3.977 0 002.604-.956 6.415 6.415 0 001.475 2.496c1.312 1.348 3.198 2.028 5.663 2.028l1.493-.02-.826-1.261z" fill="#1A1919"/><path fill-rule="evenodd" clip-rule="evenodd" d="M7.821 18.951c.63-.649 1.293-.843 1.866-.843.88 0 1.546.468 1.546.468-2.378 1.268-2.868 3.3-4.227 3.757a2.05 2.05 0 01-.69.114c-.998 0-1.965-.645-2.294-1.384 0 0 1.83-.111 3.799-2.112zM6.317 23.26c.327 0 .648-.05.951-.153.852-.282 1.394-.959 1.967-1.665.585-.722 1.243-1.536 2.384-2.144l1.174-.628-1.09-.767c-.09-.057-.909-.61-2.016-.61-.91 0-1.752.373-2.45 1.082-1.693 1.73-3.21 1.868-3.265 1.87l-1.182.07.485 1.084c.489 1.08 1.768 1.861 3.042 1.861zm5.336 9.468c-.127-3.071.661-5.561 1.896-7.614-.688 2.137-.595 4.755 1.75 7.2 0 0-4.662-5.586 1.856-11.31 2.605-2.18 5.457-3.525 6.926-4.478-5.306 1.732-7.897-.174-7.897-.174 1.694 1.469 3.888 1.443 5.249 1.23-.369.181-.755.369-1.166.592-4.476 2.43-8.495 6.429-9.184 11.967v-.043c-1.039 5.438-3.352 6.833-3.352 6.833 1.84-.907 3-3.318 3.281-4.186.309 4.78 2.64 8.095 5.367 11.288 1.415 1.656 1.914 3.265 1.914 3.265s-.277-1.823-1.505-3.307c-2.54-3.056-4.958-6.863-5.135-11.263zM32.45 21.524v1.1c.38-.462 1.11-.369 1.11-.369v1.584s-.025.779-.302 1.116h1.584c-.273-.337-.3-1.116-.3-1.116v-1.584s.732-.093 1.109.368v-1.099H32.45zm-.68-6.511c.507.401.799.469.808.474l.199.092v-1.035l-1.861-.781s.016.6.854 1.25zm4.426 0c.84-.65.856-1.25.856-1.25l-1.86.781v1.035l.196-.092c.01-.005.302-.073.808-.474z" fill="#1A1919"/><path fill-rule="evenodd" clip-rule="evenodd" d="M33.982 12.258l-4.483-1.77c.382-.904 2.14-1.671 4.483-1.674 2.347.003 4.105.77 4.484 1.674l-4.484 1.77zm3.343 5.55l-3.014 1.587v-6.43l4.09-1.388-1.076 6.23zm1.866 1.706l1.378.8h.02l.345.201a4.075 4.075 0 00-1.871 1.116c-.019.016-.035.034-.055.054a7.028 7.028 0 00-.336.39l-.065.08a7.025 7.025 0 00-.303.425l-.05.075a9.62 9.62 0 00-.333.54c-.981 1.69-2.548 2.701-3.94 2.703-1.39-.002-2.957-1.013-3.936-2.703a11.728 11.728 0 00-.328-.532c-.022-.032-.043-.066-.063-.093a10.356 10.356 0 00-.291-.408c-.025-.036-.049-.063-.074-.094a7.594 7.594 0 00-.326-.379c-.024-.019-.04-.042-.06-.062a4.077 4.077 0 00-1.873-1.112l.35-.2h.015l1.38-.8 1.417-.813 3.783 2.06.007-.009.01.009 3.783-2.06 1.416.812zm5.435 5.72c-.308.814-.563 1.695-.563 2.572l.003 5.658c-1.184-.198-1.322-1.471-1.327-1.526l-.022-.26-.255-.022c-.514-.05-.855-.266-1.142-.545-.58-.58-.58-1.52-.58-1.529-.008.05-.638.931.093 1.895.308.406.754.656 1.33.754.136.706.662 1.705 1.903 1.856v2.77h-3.49c-1.608-.896-.926-2.472-.896-2.539l.137-.298-.308-.117c-1.742-.646-1.262-2.384-1.239-2.46l.07-.252-.237-.113c-1.438-.666-1.244-2.462-1.224-2.538-.443.36-.603 1.091-.298 1.808a18.69 18.69 0 01-.629.667 1.954 1.954 0 01-1.536-1.81l-.003-.212-.196-.075c-.582-.216-.98-.54-1.178-.973-.22-.48-.143-.984-.083-1.227a5.155 5.155 0 001.015.108h.024c.172 0 .343-.011.511-.028.929-.092 1.968-.49 3.05-1.565h7.07zm-4.358 24.658l.389-2.03c.021-.119.045-.258.062-.375.111.046.226.084.352.108.147.026.28.042.402.042.595 0 .942-.314 1.172-.581l.299-.348-.244-.382a38.024 38.024 0 00-.978-1.478 7.143 7.143 0 01-.239-.353c-.473-.707-1.065-1.593-2.251-1.593l-.107.002c-.195.012-.363.05-.5.103a2.694 2.694 0 00-1.157-.266c-.491 0-.903.136-1.179.23-.08.022-.15.049-.205.058l-2.218-.218c-.028-.005-.118-.059-.229-.189v-.012l.48-.191c-.135-1.6-1.67-2.584-2.525-2.916a.909.909 0 00-.25-.45l-.476-.452-.419.502-.207.256-3.106-1.276 2.02 2.537-.796 1.209c-.292.31.03.62.03.62l.824.568.853-.319c.03 0 .057.007.085.01-.042.13-.095.64-.13.781l-1.482-.291-1.558.879c-.8.589-.91 1.561-.612 2.227l.172.378.245.534.546-.227a.061.061 0 00.02-.009c-.197.627-.116 1.222.233 1.61l.33.417.44.557.484-.52c.142-.14.604-.658.745-1.1l.105-.337-.235-.26-.04-.047.266-.437 1.934.455.436.1.232-.382.125-.208c.024-.044.03-.051.12-.051.068 0 .136.007.21.024.73.137 1.404.206 2.001.206.58 0 .926-.023 1.339-.16 0 0 1.039 1.181 1.075 1.225l-.636 1.964-.029.118c-1.205.098-1.79.362-2.5 1.07-1.03-1.022-1.76-1.13-4.526-1.13-3.313 0-5.557-1.94-5.557-5.043v-7.583h20.163l.003 7.583c0 2.514-1.476 4.27-3.801 4.841zm-12.42-4.287l.105.262c-.07.23-.856.554-.856.554l-.17-.373a1.236 1.236 0 01.406-1.474l1.275-.777 1.353.287c-.024.429.232.75.232.75l-1.418-.272-.847.586c-.144.1-.154.286-.08.457zm12.206 2.143l-.435 2.269a8.92 8.92 0 01-.873.071l.458-2.18c.137-.648-1.603-.85-2.462-2.124-.42.472-1.21.614-2.005.614-.724 0-1.448-.116-1.888-.203a1.98 1.98 0 00-.324-.03c-.253 0-.485.078-.646.347l-.125.214-2.372-.56-.589.978c-.083.158-.089.29.045.439l.16.175c-.11.345-.603.868-.603.868l-.352-.44c-.28-.312-.234-.884.057-1.413l.94-1.586 2.009.289-.312-.71c-.42-.94.22-2.137.287-2.826-.022.207-.214.255-.437.255-.202 0-.428-.039-.579-.039-.058 0-.11.006-.137.026l-.544.33-.429-.38c-.052-.071-.068-.242.058-.37l.993-1.115-1.174-1.371 1.644.826.502-.609c.139.136.078.488.078.488.512.013 1.951.808 2.028 2.665.003.057.003.121.003.182l.039.06c.1.14.382.499.738.532l2.271.226h.009c.249 0 .745-.293 1.381-.293a2.1 2.1 0 011.143.347s.207-.164.542-.18c.025-.004.054-.004.079-.004 1.017 0 1.44.921 1.988 1.685.411.583.96 1.448.96 1.448-.202.24-.39.374-.707.374a1.44 1.44 0 01-.292-.029c-1.094-.2-1.251-2.447-1.875-2.624a.373.373 0 00-.099-.014c-.2 0-.288.18-.288.18.285.765.119 1.075.425 1.665.23.437.636.798.804.968 0 0-.046.332-.094.58zm-2.09 2.354c-.306 0-.589.005-.842.016l.666-2.073c.104-.287-.422-.656-.639-.98a17.38 17.38 0 001.586.837c-.041.067-.771 2.2-.771 2.2zM28.07 31.43l.095-3.603.809-.855.507 1.062-1.001 3.46-.41-.064zm.582 1.116c.132.278.37.461.537.567a6.43 6.43 0 01-.1 1.02c-.015.08-.035.152-.057.225-.012.047-.026.084-.036.115-.247 0-.73-.032-1.128-.175-.44-.162-1.095-.968-.944-1.857.19-.117.63-.364 1.043-.364.316 0 .534.15.685.469zm9.363.968c-.622.458-2.223 1.628-2.805 2.033l-5.592-1.004.039-.15c.073-.29.149-.686.152-1.152l4.7.075.09-.091c.072-.072 1.561-1.51 2.32-2.338.18.227.406.442.702.632-.101.55-.058 1.335.394 1.995zm-7.605-8.28c.672.666 1.33 1.083 1.956 1.311-.081.323-.188.988.113 1.651.247.535.693.947 1.338 1.222a2.53 2.53 0 001.645 2.093c-.507.51-1 .993-1.199 1.186l-4.69-.075c-.107-.052-.288-.172-.369-.341-.01-.024-.024-.037-.034-.06l.764.123a.324.324 0 00.05.002.301.301 0 00.3-.253.307.307 0 00-.252-.352l-.942-.148 1.044-3.61-.99-2.082-1.585 1.677-.097 3.752-1.066-.17a.306.306 0 00-.35.256.31.31 0 00.254.35l.447.069a3.24 3.24 0 00-.279.173l-.09.063-.025.111c-.259 1.053.327 2.052.961 2.5l-.023.133a.59.59 0 00.109.452.588.588 0 00.49.253c.275 0 .515-.19.581-.468.236.028.452.034.6.034h.125l6.155 1.112.105-.07c.489-.342 2.359-1.704 2.972-2.155a2.6 2.6 0 00.584.385c-.198.665-.21 1.69.574 2.499H23.903v-9.051c0-.877-.256-1.758-.56-2.573h7.067zm-.848-13.657l4.093 1.388v6.43l-3.014-1.587-1.079-6.231zm9.985-.776c0-1.569-2.64-2.98-5.556-2.98h-.016c-2.915 0-5.556 1.411-5.556 2.98l.058.386 1.164 6.682-1.17.678-3.024 1.767h.011s-.68.35-.996.564c-1.152.8-1.397 1.968-.728 2.45.165-.952.918-1.947 2.326-1.947 1.014 0 1.789.524 2.411 1.31.162.197.314.409.456.637.175.288.351.539.526.782H21.66c.573 1.151 1.116 2.37 1.116 3.696V45.05c0 4.175 3.21 6.166 6.683 6.166 2.684 0 3.045-.122 4.526 1.354 1.474-1.476 1.836-1.353 4.522-1.353 3.474 0 6.68-1.992 6.68-6.167V27.806c0-1.326.544-2.545 1.119-3.696h-7.794c.173-.243.349-.494.525-.782.143-.229.295-.44.453-.638.629-.787 1.4-1.31 2.416-1.31 1.407 0 2.159.996 2.326 1.948.669-.482.426-1.65-.732-2.45-.31-.215-.992-.564-.992-.564h.01l-3.029-1.767-1.164-.678 1.164-6.682.057-.386z" fill="#1A1919"/></svg>